<svg width="350" height="350" viewBox="0 0 350 350" fill="none" xmlns="http://www.w3.org/2000/svg">
    <path d="M129.88 182.801C129.145 183.57 128.484 184.407 127.906 185.3" stroke="#263238"
        stroke-width="0.7" stroke-linecap="round" stroke-linejoin="round" />
    <path
        d="M152.602 239.191H220.67C220.67 239.191 222.987 232.233 214.482 227.599C205.977 222.965 202.113 226.822 199.019 222.958C195.925 219.094 207.524 209.042 184.319 198.99C184.319 198.99 182.772 177.339 151.069 176.59C141.556 176.359 135.669 178.214 131.84 181.077"
        stroke="#263238" stroke-width="0.7" stroke-linecap="round" stroke-linejoin="round" />
    <path d="M131.82 239.191H143.153" stroke="#263238" stroke-width="0.7" stroke-linecap="round"
        stroke-linejoin="round" />
    <path d="M55.7656 239.191H111.997" stroke="#263238" stroke-width="0.7" stroke-linecap="round"
        stroke-linejoin="round" />
    <path
        d="M123.776 196.002C122.81 199.299 121.76 202.141 119.38 203.66C110.875 209.071 108.558 200.566 100.053 205.977C91.5477 211.388 95.4117 222.217 88.4537 223.757C81.4957 225.297 72.2207 216.799 63.7157 222.217C55.2107 227.635 55.2107 232.262 51.3467 232.262C47.4827 232.262 39.7477 229.175 35.1067 232.262C30.4657 235.349 25.0547 239.22 25.0547 239.22H52.4457"
        stroke="#263238" stroke-width="0.7" stroke-linecap="round" stroke-linejoin="round" />
    <path
        d="M127.023 69.0636C126.029 68.0416 124.314 67.0966 121.339 67.0196C114.654 66.8586 116.439 71.5906 114.654 72.7316C112.869 73.8726 112.372 72.0806 110.58 73.2216C108.788 74.3626 109.6 76.6446 108.13 76.9736C106.66 77.3026 104.707 75.5036 102.915 76.6446C101.123 77.7856 101.116 78.7446 100.304 78.7446C99.4922 78.7446 97.8542 78.0936 96.8812 78.7446C95.9082 79.3956 94.7812 80.2146 94.7812 80.2146H112.281"
        stroke="#263238" stroke-width="0.7" stroke-linecap="round" stroke-linejoin="round" />
    <path d="M128.863 71.9823L128.352 71.7513C128.274 71.1416 128.068 70.5551 127.75 70.0293"
        stroke="#263238" stroke-width="0.7" stroke-linecap="round" stroke-linejoin="round" />
    <path
        d="M114.516 80.2363H136.02C136.02 80.2363 136.51 78.7663 134.718 77.7863C132.926 76.8063 132.107 77.6253 131.456 76.8063C130.805 75.9873 132.751 74.3213 129.713 72.4453"
        stroke="#263238" stroke-width="0.7" stroke-linecap="round" stroke-linejoin="round" />
    <path
        d="M68.7225 81.7902C67.7355 80.7612 66.0205 79.8162 63.0455 79.7462C56.3605 79.5852 58.1455 84.3102 56.3605 85.4512C54.5755 86.5922 54.0785 84.8002 52.2795 85.9412C50.4805 87.0822 51.2995 89.3712 49.8365 89.6932C48.3735 90.0152 46.4135 88.2232 44.6145 89.3712C42.8155 90.5192 42.8225 91.4712 42.0035 91.4712C41.1845 91.4712 39.5605 90.8202 38.5805 91.4712C37.6005 92.1222 36.4805 92.9412 36.4805 92.9412H53.9805"
        stroke="#263238" stroke-width="0.7" stroke-linecap="round" stroke-linejoin="round" />
    <path d="M70.563 84.703L70.059 84.472C69.9816 83.8621 69.7765 83.2753 69.457 82.75"
        stroke="#263238" stroke-width="0.7" stroke-linecap="round" stroke-linejoin="round" />
    <path
        d="M56.2109 92.9539H77.7009C77.7009 92.9539 78.1909 91.4839 76.3989 90.5109C74.6069 89.5379 73.7879 90.3429 73.1369 89.5309C72.4859 88.7189 74.4319 87.0459 71.3939 85.1699"
        stroke="#263238" stroke-width="0.7" stroke-linecap="round" stroke-linejoin="round" />
    <path
        d="M219.759 80.2356H262.403C262.403 80.2356 263.859 75.8746 258.525 72.9696C253.191 70.0646 250.776 72.4866 248.837 70.0646C246.898 67.6426 254.171 61.3426 239.639 55.0426C239.639 55.0426 238.666 41.4836 218.807 41.0006C210.239 40.7906 206.361 43.2896 204.289 46.4676"
        stroke="#263238" stroke-width="0.7" stroke-linecap="round" stroke-linejoin="round" />
    <path d="M206.746 80.2363H213.844" stroke="#263238" stroke-width="0.7" stroke-linecap="round"
        stroke-linejoin="round" />
    <path
        d="M201.707 53.1523C201.098 55.2173 200.44 57.0023 198.949 57.9543C193.622 61.3423 192.173 56.0153 186.839 59.4033C181.505 62.7913 183.934 69.5743 179.573 70.5473C175.212 71.5203 169.402 66.1863 164.075 69.5743C158.748 72.9623 158.748 75.8743 156.326 75.8743C153.904 75.8743 149.06 73.9353 146.155 75.8743C143.25 77.8133 139.855 80.2353 139.855 80.2353H194.322"
        stroke="#263238" stroke-width="0.7" stroke-linecap="round" stroke-linejoin="round" />
    <path d="M318.199 305.416C320.544 305.514 321.916 305.598 323.288 305.598H330.757"
        stroke="#263238" stroke-width="0.7" stroke-linecap="round" stroke-linejoin="round" />
    <path
        d="M92.2891 306.55C104.511 306.634 115.445 306.935 123.558 306.55C132.889 306.081 160.42 301.881 179.558 301.881C198.696 301.881 227.62 301.881 251.42 304.681C275.22 307.481 284.089 305.15 300.42 305.15C305.677 305.15 309.576 305.199 312.565 305.262"
        stroke="#263238" stroke-width="0.7" stroke-linecap="round" stroke-linejoin="round" />
    <path
        d="M26.4883 307.46C26.4883 307.46 44.6883 306.998 58.2193 306.998C71.7503 306.998 72.2193 306.529 86.6883 306.529"
        stroke="#263238" stroke-width="0.7" stroke-linecap="round" stroke-linejoin="round" />
    <path d="M191.738 314.635C194.874 314.831 196.82 314.929 196.82 314.929" stroke="#263238"
        stroke-width="0.7" stroke-linecap="round" stroke-linejoin="round" />
    <path
        d="M82.957 314.928C82.957 314.928 87.157 314.928 109.088 313.997C131.019 313.066 148.288 310.259 163.219 312.128C171.248 313.129 180.355 313.864 187.061 314.326"
        stroke="#263238" stroke-width="0.7" stroke-linecap="round" stroke-linejoin="round" />
    <path
        d="M269.156 309.798C269.156 309.798 259.818 310.729 238.356 309.329C216.894 307.929 212.687 309.798 209.887 309.798H202.887"
        stroke="#263238" stroke-width="0.7" stroke-linecap="round" stroke-linejoin="round" />
    <path
        d="M252.826 316.035C248.924 316.057 245.028 316.312 241.157 316.798C230.888 318.198 223.419 319.598 219.219 320.06"
        stroke="#263238" stroke-width="0.7" stroke-linecap="round" stroke-linejoin="round" />
    <path d="M264.957 316.329C264.957 316.329 262.507 316.161 258.902 316.07" stroke="#263238"
        stroke-width="0.7" stroke-linecap="round" stroke-linejoin="round" />
    <path d="M80.625 320.332C84.244 320.43 86.687 320.528 86.687 320.528" stroke="#263238"
        stroke-width="0.7" stroke-linecap="round" stroke-linejoin="round" />
    <path
        d="M46.0898 321.461C52.1105 320.518 58.1959 320.05 64.2898 320.061C67.8388 320.061 71.6118 320.117 75.0278 320.194"
        stroke="#263238" stroke-width="0.7" stroke-linecap="round" stroke-linejoin="round" />
    <path
        d="M243.032 183.443C243.032 183.443 232.147 173.643 228.157 174.917C224.167 176.191 221.808 191.605 221.808 199.956C221.808 208.307 220.359 221.544 220.359 221.544L235.416 213.018C235.416 213.018 243.214 211.205 248.478 202.133C253.742 193.061 243.032 183.443 243.032 183.443Z"
        fill="white" stroke="#263238" stroke-width="0.7" stroke-linecap="round"
        stroke-linejoin="round" />
    <path
        d="M90.8932 264.644C90.8932 264.644 74.3872 273.352 71.2932 273.534C68.1992 273.716 59.3162 272.442 56.2362 270.265C53.1562 268.088 50.9722 265.729 49.3412 266.275C47.7102 266.821 46.9822 268.634 47.5282 269.544C47.8168 270.053 48.2344 270.478 48.7392 270.776C48.7392 270.776 46.0862 271.294 46.5972 273.576C46.788 274.205 46.8569 274.866 46.8002 275.522C46.8002 275.522 45.8902 278.063 46.4362 278.966C46.9822 279.869 47.8922 281.507 47.8922 281.507C47.8922 281.507 48.2492 283.327 51.5182 285.14C52.7826 285.971 53.9937 286.88 55.1442 287.863C57.3212 289.676 66.7572 296.207 69.4802 296.571C72.2032 296.935 75.0802 294.751 76.7392 293.12C78.3982 291.489 80.1832 284.02 82.1782 281.507C84.1732 278.994 97.5222 262.362 98.6072 260.185C99.6922 258.008 90.8932 264.644 90.8932 264.644Z"
        fill="white" stroke="#263238" stroke-width="0.7" stroke-linecap="round"
        stroke-linejoin="round" />
    <path d="M49.1647 270.082C49.1647 270.082 47.1697 276.438 47.7157 279.518" stroke="#263238"
        stroke-width="0.7" stroke-linecap="round" stroke-linejoin="round" />
    <path
        d="M233.947 292.152C233.111 292.152 232.31 291.82 231.719 291.229C231.129 290.639 230.797 289.838 230.797 289.002V218.771C230.797 217.936 231.129 217.134 231.719 216.544C232.31 215.953 233.111 215.621 233.947 215.621C234.782 215.621 235.584 215.953 236.174 216.544C236.765 217.134 237.097 217.936 237.097 218.771V289.002C237.098 289.416 237.017 289.826 236.859 290.209C236.701 290.591 236.469 290.939 236.176 291.232C235.884 291.524 235.536 291.756 235.153 291.914C234.771 292.072 234.361 292.153 233.947 292.152Z"
        fill="#263238" stroke="#263238" stroke-width="0.7" stroke-linecap="round"
        stroke-linejoin="round" />
    <path
        d="M179.555 275.031C179.555 275.031 196.355 269.851 205.455 266.981C214.555 264.111 228.338 257.139 235.38 252.449C242.422 247.759 247.903 244.623 250.78 238.624C253.657 232.625 256.002 226.626 256.002 221.124V215.65L165.492 272.007L179.555 275.031Z"
        fill="white" stroke="#263238" stroke-width="0.7" stroke-linecap="round"
        stroke-linejoin="round" />
    <path
        d="M109.066 306.182C108.227 306.183 107.41 305.91 106.74 305.404C106.07 304.898 105.584 304.187 105.356 303.379C105.128 302.572 105.17 301.711 105.475 300.93C105.781 300.148 106.334 299.488 107.05 299.049L269.919 199.411C270.791 198.878 271.838 198.714 272.831 198.953C273.824 199.193 274.682 199.817 275.214 200.689C275.747 201.56 275.912 202.608 275.672 203.601C275.433 204.594 274.809 205.451 273.937 205.984L111.068 305.615C110.466 305.985 109.773 306.182 109.066 306.182Z"
        fill="#263238" stroke="#263238" stroke-width="0.7" stroke-linecap="round"
        stroke-linejoin="round" />
    <path
        d="M130.196 233.522C130.196 233.522 121.096 230.071 118.583 230.981C116.07 231.891 112.234 239.143 111.87 240.081C111.506 241.019 94.3704 257.413 91.2694 262.859C88.1684 268.305 77.2694 282.27 77.2694 282.27C77.2694 282.27 74.9314 291.132 73.4964 292.602C72.0614 294.072 68.7784 293.694 66.7834 292.42C64.26 290.714 61.6502 289.139 58.9644 287.702C56.5677 286.627 54.0768 285.777 51.5234 285.161C51.6523 286.865 51.8861 288.56 52.2234 290.236C52.7624 292.777 53.1264 294.597 55.8494 296.774C58.5724 298.951 61.4494 301.674 64.5574 303.305C67.6654 304.936 70.7244 307.841 74.3574 305.839C77.9904 303.837 80.9164 298.202 81.8194 297.502C82.7224 296.802 87.0834 288.976 91.2554 286.435C95.4274 283.894 107.502 274.185 112.402 269.103C117.302 264.021 122.377 252.772 122.377 252.772L129.454 256.762C129.454 256.762 136.167 250.231 136.167 243.882C136.167 237.533 130.196 233.522 130.196 233.522Z"
        fill="white" stroke="#263238" stroke-width="0.7" stroke-linecap="round"
        stroke-linejoin="round" />
    <path
        d="M73.4983 292.601C72.0493 294.057 68.7803 293.693 66.7853 292.419C64.2619 290.713 61.6521 289.138 58.9663 287.701C58.1606 287.307 57.3333 286.959 56.4883 286.658C57.1883 288.121 58.0913 290.095 59.0083 292.223C60.5343 295.793 63.3273 300.987 66.2183 304.249C68.7733 305.803 71.3983 307.483 74.3873 305.838C75.8386 304.95 77.1131 303.802 78.1463 302.45C78.7063 299.727 78.8463 295.646 78.8463 290.781C78.8463 284.173 81.5273 277.369 81.5273 277.369L80.8693 277.614C78.8253 280.323 77.3133 282.255 77.3133 282.255C77.3133 282.255 74.9333 291.131 73.4983 292.601Z"
        fill="#263238" stroke="#263238" stroke-width="0.7" stroke-linecap="round"
        stroke-linejoin="round" />
    <path
        d="M130.197 249.902L127.103 250.938L124.002 250.728L118.647 246.402C119.539 249.071 119.61 251.946 118.85 254.655C117.611 259.408 111.626 268.9 111.626 268.9L107.16 273.982C109.26 272.169 111.08 270.482 112.403 269.082C117.303 264 122.378 252.751 122.378 252.751L129.455 256.741C130.483 255.7 131.433 254.584 132.297 253.402C131.366 251.729 130.197 249.902 130.197 249.902Z"
        fill="#263238" stroke="#263238" stroke-width="0.7" stroke-linecap="round"
        stroke-linejoin="round" />
    <path
        d="M172.456 243.313C172.456 243.313 154.312 238.056 146.696 235.879C139.08 233.702 130.911 231.882 129.455 232.61C127.999 233.338 125.829 252.021 126.193 253.841C126.458 255.041 126.885 256.2 127.46 257.285C127.46 257.285 144.694 264.544 151.26 266.903C157.826 269.262 166.863 273.98 169.761 273.98C172.659 273.98 175.753 271.978 176.838 270.893C177.923 269.808 177.202 256.557 177.202 251.839C177.227 249.152 176.922 246.472 176.292 243.859L172.456 243.313Z"
        fill="#263238" stroke="#263238" stroke-width="0.7" stroke-linecap="round"
        stroke-linejoin="round" />
    <path
        d="M232.874 211.402C232.874 211.402 226.161 213.761 216.543 220.292C206.925 226.823 200.198 233.886 196.586 236.602C192.974 239.318 179.17 242.202 177.357 242.202H172.457C172.457 242.202 170.28 246.038 170.098 255.502C170.107 261.68 171.151 267.813 173.185 273.646C180.131 270.877 187.292 268.683 194.598 267.087C207.478 264.182 226.896 255.11 236.871 247.851C246.846 240.592 249.576 237.512 251.928 232.794C254.28 228.076 255.743 225.535 255.015 220.096C254.287 214.657 246.125 210.66 240.861 210.296C235.597 209.932 232.874 211.402 232.874 211.402Z"
        fill="#E88400" stroke="#263238" stroke-width="0.7" stroke-linecap="round"
        stroke-linejoin="round" />
    <path d="M203.082 257.293C204.444 257.593 205.839 257.72 207.233 257.671" stroke="#263238"
        stroke-width="0.7" stroke-linecap="round" stroke-linejoin="round" />
    <path
        d="M177.349 243.846C177.349 243.846 176.04 247.766 189.116 253.002C192.941 254.574 196.879 255.857 200.897 256.838"
        stroke="#263238" stroke-width="0.7" stroke-linecap="round" stroke-linejoin="round" />
    <path d="M186.121 245.701C188.655 246.835 193.121 248.137 200.121 248.137" stroke="#263238"
        stroke-width="0.7" stroke-linecap="round" stroke-linejoin="round" />
    <path d="M183.328 244.035C183.599 244.272 183.889 244.485 184.196 244.672" stroke="#263238"
        stroke-width="0.7" stroke-linecap="round" stroke-linejoin="round" />
    <path d="M209.877 233.101C208.596 232.576 207.98 232.24 207.98 232.24" stroke="#263238"
        stroke-width="0.7" stroke-linecap="round" stroke-linejoin="round" />
    <path
        d="M243.285 236.749C243.285 236.749 245.525 240.487 230.209 238.247C223.983 237.414 217.856 235.963 211.918 233.914"
        stroke="#263238" stroke-width="0.7" stroke-linecap="round" stroke-linejoin="round" />
    <path
        d="M241.944 180.902C241.944 180.902 235.413 182.715 235.049 184.892C234.685 187.069 233.6 188.343 232.872 188.707C232.144 189.071 228.336 188.007 227.426 189.071C226.516 190.135 227.069 193.607 227.069 193.607C225.772 195.799 224.678 198.105 223.8 200.495C222.715 203.764 223.8 204.31 225.067 204.856C226.334 205.402 229.267 207.033 229.267 207.033L230.17 213.746C230.17 213.746 225.27 218.457 226.18 219.003C227.09 219.549 243.05 211.569 243.05 211.569C243.05 211.569 251.94 209.567 254.299 208.118C256.658 206.669 263.399 197.233 261.376 191.605C259.353 185.977 251.765 182.505 248.496 181.994L241.944 180.902Z"
        fill="white" stroke="#263238" stroke-width="0.7" stroke-linecap="round"
        stroke-linejoin="round" />
    <path
        d="M246.245 202.883C246.245 202.883 237.145 205.984 233.855 205.984C230.985 205.984 225.308 204.493 223.824 204.094C224.181 204.433 224.606 204.693 225.07 204.857C226.344 205.396 229.27 207.034 229.27 207.034L229.361 207.734L241.002 212.599L241.954 212.123L246.245 202.883Z"
        fill="#263238" />
    <path d="M239.225 187.979L237.594 189.792C237.594 189.792 238.679 191.248 239.953 191.248"
        stroke="#263238" stroke-width="0.7" stroke-linecap="round" stroke-linejoin="round" />
    <path d="M238.699 185.439C238.699 185.439 241.422 183.626 243.963 187.798" stroke="#263238"
        stroke-width="0.7" stroke-linecap="round" stroke-linejoin="round" />
    <path
        d="M228.52 195.959C229.272 196.626 230.172 197.105 231.145 197.358C232.118 197.611 233.137 197.63 234.12 197.415"
        stroke="#263238" stroke-width="0.7" stroke-linecap="round" stroke-linejoin="round" />
    <path
        d="M257.913 182.358C257.913 182.358 253.923 178.158 249.926 176.548C245.929 174.938 241.764 174.007 241.946 175.281C242.128 176.555 245.033 178.361 245.033 178.361C245.033 178.361 237.592 177.458 238.138 179.817C238.684 182.176 255.918 187.251 255.918 187.251C255.918 187.251 248.113 188.707 248.295 190.338C248.477 191.969 249.205 191.969 249.205 193.061C249.205 194.153 245.572 198.318 246.3 199.046C247.028 199.774 249.926 195.959 250.654 195.959C251.382 195.959 254.462 195.602 254.462 199.774C254.462 203.946 251.746 205.374 250.654 205.577C249.346 205.956 248.073 206.443 246.846 207.033C246.846 207.033 251.564 208.846 254.098 208.846C256.632 208.846 263.198 207.033 265.711 202.133C268.224 197.233 265.529 187.433 263.17 184.892C261.811 183.4 259.927 182.492 257.913 182.358Z"
        fill="#263238" />
    <path
        d="M238.699 220.459C238.699 220.459 240.694 212.654 242.899 206.123C245.104 199.592 249.787 188.161 252.328 182.533C254.869 176.905 259.951 175.645 261.582 175.82C263.213 175.995 265.936 181.994 265.782 185.984C265.628 189.974 262.702 195.602 262.338 197.415C261.974 199.228 256.353 215.559 256.353 219.185C256.353 222.811 252.72 229.349 249.997 231.526"
        fill="#E88400" />
    <path
        d="M238.699 220.459C238.699 220.459 240.694 212.654 242.899 206.123C245.104 199.592 249.787 188.161 252.328 182.533C254.869 176.905 259.951 175.645 261.582 175.82C263.213 175.995 265.936 181.994 265.782 185.984C265.628 189.974 262.702 195.602 262.338 197.415C261.974 199.228 256.353 215.559 256.353 219.185C256.353 222.811 252.72 229.349 249.997 231.526"
        stroke="#263238" stroke-width="0.7" stroke-linecap="round" stroke-linejoin="round" />
    <path
        d="M265.71 185.985C265.892 181.995 263.169 176.003 261.51 175.821C259.851 175.639 254.797 176.913 252.256 182.534C249.715 188.155 245.004 199.593 242.827 206.124C242.295 207.706 241.784 209.358 241.301 210.954C242.561 214.237 245.347 221.041 246.999 221.727C248.504 222.357 252.977 221.237 256.246 219.284C256.246 219.284 256.246 219.221 256.246 219.186C256.246 215.56 261.846 199.229 262.231 197.416C262.616 195.603 265.528 189.975 265.71 185.985Z"
        fill="white" stroke="#263238" stroke-width="0.7" stroke-linecap="round"
        stroke-linejoin="round" />
    <path
        d="M124.97 265.412C124.446 264.886 124.107 264.203 124.007 263.467C123.908 262.73 124.052 261.981 124.417 261.334C124.783 260.688 125.351 260.178 126.034 259.885C126.716 259.591 127.476 259.529 128.197 259.707L280.531 299.488C280.983 299.578 281.411 299.759 281.791 300.019C282.171 300.279 282.494 300.613 282.741 301.002C282.988 301.39 283.154 301.824 283.229 302.279C283.303 302.733 283.285 303.197 283.175 303.644C283.066 304.091 282.867 304.512 282.59 304.879C282.314 305.247 281.965 305.556 281.567 305.785C281.168 306.015 280.727 306.162 280.27 306.216C279.813 306.271 279.349 306.233 278.907 306.103L126.573 266.322C125.965 266.174 125.409 265.859 124.97 265.412Z"
        fill="#263238" stroke="#263238" stroke-width="0.7" stroke-linecap="round"
        stroke-linejoin="round" />
    <path
        d="M113.754 306.182C112.915 306.182 112.1 305.907 111.431 305.401C110.763 304.894 110.278 304.183 110.05 303.376C109.823 302.569 109.866 301.709 110.171 300.928C110.477 300.147 111.03 299.487 111.745 299.049L274.607 199.411C275.479 198.878 276.526 198.714 277.52 198.953C278.513 199.193 279.37 199.817 279.903 200.689C280.435 201.56 280.6 202.608 280.361 203.601C280.121 204.594 279.497 205.451 278.625 205.984L115.763 305.615C115.159 305.986 114.463 306.182 113.754 306.182Z"
        fill="white" stroke="#263238" stroke-width="0.7" stroke-linecap="round"
        stroke-linejoin="round" />
    <path
        d="M125.719 263.831C125.199 263.303 124.865 262.619 124.768 261.884C124.671 261.149 124.816 260.402 125.182 259.757C125.547 259.112 126.113 258.604 126.794 258.309C127.474 258.015 128.232 257.951 128.953 258.126L284.78 299.216C285.623 299.462 286.338 300.025 286.776 300.786C287.215 301.547 287.343 302.448 287.133 303.3C286.924 304.153 286.393 304.893 285.653 305.364C284.912 305.835 284.017 306.003 283.156 305.831L127.329 264.741C126.717 264.595 126.159 264.279 125.719 263.831Z"
        fill="white" stroke="#263238" stroke-width="0.7" stroke-linecap="round"
        stroke-linejoin="round" />
    <path
        d="M164.154 272.581C164.927 272.581 165.554 271.954 165.554 271.181C165.554 270.408 164.927 269.781 164.154 269.781C163.381 269.781 162.754 270.408 162.754 271.181C162.754 271.954 163.381 272.581 164.154 272.581Z"
        fill="#263238" stroke="#263238" stroke-width="0.7" stroke-linecap="round"
        stroke-linejoin="round" />
    <path
        d="M282.455 303.732C283.228 303.732 283.855 303.105 283.855 302.332C283.855 301.558 283.228 300.932 282.455 300.932C281.681 300.932 281.055 301.558 281.055 302.332C281.055 303.105 281.681 303.732 282.455 303.732Z"
        fill="#263238" stroke="#263238" stroke-width="0.7" stroke-linecap="round"
        stroke-linejoin="round" />
    <path
        d="M130.556 263.831C131.329 263.831 131.956 263.204 131.956 262.431C131.956 261.658 131.329 261.031 130.556 261.031C129.783 261.031 129.156 261.658 129.156 262.431C129.156 263.204 129.783 263.831 130.556 263.831Z"
        fill="#263238" stroke="#263238" stroke-width="0.7" stroke-linecap="round"
        stroke-linejoin="round" />
    <path
        d="M124.255 297.081C125.029 297.081 125.655 296.454 125.655 295.681C125.655 294.908 125.029 294.281 124.255 294.281C123.482 294.281 122.855 294.908 122.855 295.681C122.855 296.454 123.482 297.081 124.255 297.081Z"
        fill="#263238" stroke="#263238" stroke-width="0.7" stroke-linecap="round"
        stroke-linejoin="round" />
    <path
        d="M270.205 207.831C270.978 207.831 271.605 207.204 271.605 206.431C271.605 205.658 270.978 205.031 270.205 205.031C269.431 205.031 268.805 205.658 268.805 206.431C268.805 207.204 269.431 207.831 270.205 207.831Z"
        fill="#263238" stroke="#263238" stroke-width="0.7" stroke-linecap="round"
        stroke-linejoin="round" />
    <path
        d="M242.556 296.85C241.721 296.85 240.92 296.519 240.329 295.928C239.738 295.337 239.406 294.536 239.406 293.7V223.462C239.406 222.627 239.738 221.826 240.329 221.235C240.92 220.644 241.721 220.312 242.556 220.312C243.392 220.312 244.193 220.644 244.784 221.235C245.374 221.826 245.706 222.627 245.706 223.462V293.7C245.704 294.535 245.372 295.335 244.782 295.926C244.191 296.516 243.391 296.849 242.556 296.85Z"
        fill="white" stroke="#263238" stroke-width="0.7" stroke-linecap="round"
        stroke-linejoin="round" />
    <path
        d="M242.556 293.931C243.329 293.931 243.956 293.304 243.956 292.531C243.956 291.758 243.329 291.131 242.556 291.131C241.783 291.131 241.156 291.758 241.156 292.531C241.156 293.304 241.783 293.931 242.556 293.931Z"
        fill="#263238" stroke="#263238" stroke-width="0.7" stroke-linecap="round"
        stroke-linejoin="round" />
    <path
        d="M242.556 225.681C243.329 225.681 243.956 225.054 243.956 224.281C243.956 223.508 243.329 222.881 242.556 222.881C241.783 222.881 241.156 223.508 241.156 224.281C241.156 225.054 241.783 225.681 242.556 225.681Z"
        fill="#263238" stroke="#263238" stroke-width="0.7" stroke-linecap="round"
        stroke-linejoin="round" />
    <path d="M165.555 241.661L190.755 240.261L173.017 235.83L147.117 236.761L165.555 241.661Z"
        fill="#D4D4D4" stroke="#263238" stroke-width="0.7" stroke-linecap="round"
        stroke-linejoin="round" />
    <path d="M165.555 241.661L147.117 236.761V212.492L165.555 214.361V241.661Z" fill="#A8A8A8"
        stroke="#263238" stroke-width="0.7" stroke-linecap="round" stroke-linejoin="round" />
    <path d="M167.48 237.14L175.698 239.646H183.384L173.731 236.965L167.48 237.14Z" fill="#D4D4D4"
        stroke="#263238" stroke-width="0.7" stroke-linecap="round" stroke-linejoin="round" />
    <path
        d="M165.555 214.36L147.117 212.498V233.757C147.983 233.911 148.874 233.846 149.709 233.569C150.544 233.291 151.297 232.81 151.898 232.168C154.467 229.13 156.098 222.599 160.767 220.968C163.217 220.107 164.694 219.568 165.555 219.26V214.36Z"
        fill="#263238" stroke="#263238" stroke-width="0.7" stroke-linecap="round"
        stroke-linejoin="round" />
    <path
        d="M155.749 229.369C156.588 229.369 157.268 228.062 157.268 226.45C157.268 224.838 156.588 223.531 155.749 223.531C154.911 223.531 154.23 224.838 154.23 226.45C154.23 228.062 154.911 229.369 155.749 229.369Z"
        fill="white" stroke="#263238" stroke-width="0.7" stroke-linecap="round"
        stroke-linejoin="round" />
    <path
        d="M302.99 191.618C317.294 191.618 328.89 180.023 328.89 165.718C328.89 151.414 317.294 139.818 302.99 139.818C288.686 139.818 277.09 151.414 277.09 165.718C277.09 180.023 288.686 191.618 302.99 191.618Z"
        fill="white" stroke="#E88400" stroke-width="4.2" stroke-linecap="round"
        stroke-linejoin="round" />
    <path
        d="M314.168 172.788C312.593 172.788 311.837 172.221 311.501 171.528V161.952C311.501 160.402 311.034 158.888 310.159 157.607C309.285 156.327 308.045 155.341 306.601 154.777C306.637 154.609 306.656 154.438 306.657 154.266C306.657 153.946 306.594 153.629 306.471 153.334C306.349 153.038 306.169 152.77 305.943 152.544C305.717 152.317 305.448 152.138 305.153 152.016C304.857 151.893 304.54 151.83 304.221 151.83H303.591C303.233 151.832 302.88 151.913 302.557 152.066C302.234 152.22 301.949 152.442 301.721 152.718C301.494 152.993 301.329 153.316 301.24 153.662C301.15 154.008 301.138 154.37 301.204 154.721C299.713 155.255 298.423 156.236 297.509 157.53C296.596 158.824 296.104 160.368 296.101 161.952V171.5C295.765 172.2 295.016 172.76 293.434 172.76V175.427H301.288C301.288 175.483 301.288 175.532 301.288 175.588C301.288 176.255 301.552 176.894 302.024 177.365C302.495 177.836 303.134 178.101 303.801 178.101C304.467 178.101 305.106 177.836 305.578 177.365C306.049 176.894 306.314 176.255 306.314 175.588C306.314 175.532 306.314 175.483 306.314 175.427H314.168V172.788Z"
        fill="#263238" />
    <path d="M281.746 178.9L323.739 150.193" stroke="#E88400" stroke-width="4.2"
        stroke-linecap="round" stroke-linejoin="round" />
    <path
        d="M247.04 145.402C257.154 135.287 257.154 118.888 247.04 108.774C236.925 98.6592 220.526 98.6592 210.412 108.774C200.297 118.888 200.297 135.287 210.412 145.402C220.526 155.517 236.925 155.517 247.04 145.402Z"
        fill="white" stroke="#E88400" stroke-width="4.2" stroke-linecap="round"
        stroke-linejoin="round" />
    <path
        d="M239.876 121.316C239.581 121.319 239.287 121.34 238.994 121.379C238.714 119.033 237.631 116.856 235.928 115.217C234.226 113.579 232.009 112.58 229.654 112.39C227.298 112.201 224.95 112.832 223.007 114.177C221.064 115.522 219.647 117.498 218.995 119.769C217.072 120.027 215.318 121.002 214.082 122.498C212.847 123.995 212.222 125.902 212.333 127.839C212.443 129.776 213.281 131.6 214.679 132.946C216.076 134.292 217.93 135.061 219.87 135.099H239.876C241.701 135.099 243.451 134.374 244.742 133.084C246.032 131.793 246.757 130.043 246.757 128.218C246.757 126.393 246.032 124.643 244.742 123.352C243.451 122.062 241.701 121.337 239.876 121.337V121.316Z"
        fill="#263238" />
    <path
        d="M226.928 140.734L224.079 135.799L221.223 140.734H222.679V144.689H225.479V140.734H226.928Z"
        fill="#263238" />
    <path
        d="M230.254 139.754L233.103 144.689L235.952 139.754H234.503V135.799H231.703V139.754H230.254Z"
        fill="#263238" />
    <path d="M207.012 140.264L249.005 111.557" stroke="#E88400" stroke-width="4.2"
        stroke-linecap="round" stroke-linejoin="round" />
    <path
        d="M142.4 163.089C156.334 159.855 165.007 145.937 161.772 132.003C158.537 118.07 144.62 109.396 130.686 112.631C116.752 115.866 108.079 129.784 111.314 143.717C114.549 157.651 128.467 166.324 142.4 163.089Z"
        fill="white" stroke="#E88400" stroke-width="4.2" stroke-linecap="round"
        stroke-linejoin="round" />
    <path
        d="M136.974 139.627C136.974 138.699 137.343 137.809 137.999 137.152C138.655 136.496 139.546 136.127 140.474 136.127H144.009V126.082C144.009 125.119 143.626 124.195 142.945 123.513C142.263 122.832 141.339 122.449 140.376 122.449H121.098C120.134 122.449 119.21 122.832 118.529 123.513C117.848 124.195 117.465 125.119 117.465 126.082V137.282C117.465 138.246 117.848 139.17 118.529 139.851C119.21 140.532 120.134 140.915 121.098 140.915H125.424L129.211 148.748L131.311 140.915H137.002L136.974 139.627Z"
        fill="#263238" />
    <path
        d="M140.48 137.15H153.633C153.959 137.149 154.282 137.213 154.584 137.337C154.885 137.461 155.159 137.644 155.39 137.874C155.621 138.104 155.804 138.377 155.929 138.678C156.054 138.98 156.118 139.302 156.118 139.628V147.258C156.117 147.916 155.854 148.547 155.388 149.011C154.922 149.476 154.291 149.736 153.633 149.736H150.693L148.103 155.077L146.703 149.736H140.501C139.844 149.736 139.214 149.475 138.749 149.011C138.285 148.546 138.023 147.916 138.023 147.258V139.628C138.022 138.974 138.279 138.346 138.74 137.882C139.2 137.417 139.826 137.154 140.48 137.15Z"
        fill="#263238" />
    <path d="M122.766 127.539H138.705" stroke="#E88400" stroke-width="2.1" stroke-linecap="round"
        stroke-linejoin="round" />
    <path d="M122.766 131.451H138.705" stroke="#E88400" stroke-width="2.1" stroke-linecap="round"
        stroke-linejoin="round" />
    <path d="M122.766 135.363H138.705" stroke="#E88400" stroke-width="2.1" stroke-linecap="round"
        stroke-linejoin="round" />
    <path d="M114.801 151.031L156.794 122.324" stroke="#E88400" stroke-width="4.2"
        stroke-linecap="round" stroke-linejoin="round" />
    <path
        d="M83.4031 202.345C93.5177 192.231 93.5177 175.832 83.4031 165.717C73.2886 155.603 56.8896 155.603 46.775 165.717C36.6604 175.832 36.6604 192.231 46.775 202.345C56.8896 212.46 73.2886 212.46 83.4031 202.345Z"
        fill="white" stroke="#E88400" stroke-width="4.2" stroke-linecap="round"
        stroke-linejoin="round" />
    <path
        d="M65.0985 174.081C61.2197 174.066 57.4102 175.109 54.0805 177.098C52.7092 177.995 51.3888 178.967 50.1255 180.01C49.8034 180.313 49.4084 180.527 48.979 180.631C48.5496 180.735 48.1004 180.726 47.6755 180.605C47.3497 180.505 47.0511 180.332 46.8019 180.099C46.5527 179.866 46.3595 179.58 46.2369 179.262C46.1142 178.944 46.0653 178.602 46.0938 178.263C46.1223 177.923 46.2275 177.594 46.4015 177.301C46.6783 176.893 47.0079 176.524 47.3815 176.202C51.5368 172.445 56.787 170.119 62.3615 169.566C70.1945 168.782 76.9985 171.169 82.8995 176.286C83.2189 176.51 83.4888 176.796 83.6923 177.129C83.8959 177.461 84.0287 177.832 84.0825 178.218C84.1326 178.661 84.0526 179.108 83.852 179.506C83.6515 179.904 83.3392 180.235 82.9536 180.458C82.5679 180.681 82.1255 180.786 81.6807 180.761C81.2359 180.737 80.808 180.583 80.4495 180.318C79.9875 180.003 79.5815 179.618 79.1475 179.24C75.3784 176.059 70.638 174.257 65.7075 174.13L65.0985 174.081Z"
        fill="#263238" />
    <path
        d="M76.657 186.569C76.3206 186.569 75.9877 186.501 75.6785 186.369C75.3693 186.237 75.0901 186.043 74.858 185.799C72.3698 183.395 69.0795 181.998 65.6218 181.876C62.1641 181.755 58.7838 182.918 56.133 185.141C55.741 185.463 55.363 185.841 54.943 186.114C54.4783 186.461 53.8995 186.619 53.323 186.557C52.7465 186.495 52.2149 186.216 51.835 185.778C51.4577 185.35 51.256 184.794 51.2702 184.223C51.2845 183.652 51.5137 183.108 51.912 182.698C53.7644 180.768 56.0413 179.297 58.562 178.4C60.8933 177.508 63.3821 177.102 65.8761 177.205C68.3701 177.309 70.8166 177.92 73.066 179.002C74.9958 179.885 76.7506 181.109 78.246 182.614C78.5855 182.942 78.815 183.368 78.9028 183.831C78.9905 184.295 78.9323 184.775 78.736 185.204C78.5695 185.616 78.2813 185.968 77.9098 186.212C77.5383 186.456 77.1013 186.58 76.657 186.569Z"
        fill="#263238" />
    <path
        d="M65.0376 184.975C66.5478 184.968 68.0428 185.276 69.4275 185.878C70.8123 186.481 72.0564 187.365 73.0806 188.475C73.4967 188.89 73.7386 189.449 73.7568 190.037C73.775 190.625 73.5682 191.198 73.1786 191.639C72.7681 192.083 72.2023 192.351 71.5988 192.389C70.9953 192.427 70.4004 192.231 69.9376 191.842C69.1591 191.158 68.2956 190.576 67.3686 190.113C64.9326 189.126 62.7066 189.679 60.7676 191.415C60.4734 191.756 60.1001 192.02 59.6803 192.183C59.2605 192.347 58.8071 192.405 58.3596 192.353C57.9732 192.287 57.6104 192.122 57.3069 191.874C57.0033 191.626 56.7695 191.304 56.6283 190.938C56.4871 190.572 56.4434 190.176 56.5015 189.789C56.5596 189.401 56.7175 189.035 56.9596 188.727C57.9955 187.445 59.3461 186.454 60.8796 185.85C62.1952 185.289 63.6078 184.992 65.0376 184.975Z"
        fill="#263238" />
    <path
        d="M65.1326 198.625C64.7628 198.633 64.3953 198.565 64.0521 198.427C63.709 198.289 63.3973 198.083 63.1357 197.822C62.8742 197.56 62.6682 197.249 62.5302 196.905C62.3922 196.562 62.325 196.195 62.3326 195.825C62.3325 195.09 62.6218 194.384 63.1378 193.86C63.6539 193.336 64.3553 193.036 65.0906 193.025C65.4816 192.977 65.8783 193.012 66.2549 193.127C66.6315 193.243 66.9795 193.437 67.276 193.696C67.5726 193.955 67.8111 194.274 67.976 194.632C68.1409 194.99 68.2284 195.378 68.2329 195.772C68.2373 196.166 68.1586 196.557 68.0019 196.918C67.8452 197.279 67.6139 197.604 67.3233 197.87C67.0327 198.136 66.6892 198.337 66.3153 198.461C65.9414 198.585 65.5456 198.629 65.1536 198.59L65.1326 198.625Z"
        fill="#263238" />
    <path d="M43.3281 197.203L85.3211 168.496" stroke="#E88400" stroke-width="4.2"
        stroke-linecap="round" stroke-linejoin="round" />
</svg>